<?xml version="1.0" encoding="UTF-8" standalone="no"?>
<!-- Created with Inkscape (http://www.inkscape.org/) -->

<svg
   xmlns:dc="http://purl.org/dc/elements/1.1/"
   xmlns:cc="http://creativecommons.org/ns#"
   xmlns:rdf="http://www.w3.org/1999/02/22-rdf-syntax-ns#"
   xmlns:svg="http://www.w3.org/2000/svg"
   xmlns="http://www.w3.org/2000/svg"
   xmlns:xlink="http://www.w3.org/1999/xlink"
   xmlns:sodipodi="http://sodipodi.sourceforge.net/DTD/sodipodi-0.dtd"
   xmlns:inkscape="http://www.inkscape.org/namespaces/inkscape"
   width="256"
   height="256"
   id="svg3088"
   version="1.1"
   inkscape:version="0.48.2 r9819"
   sodipodi:docname="pixasso-icon.svg">
  <defs
     id="defs3090">
    <inkscape:path-effect
       effect="rough_hatches"
       id="path-effect4282"
       is_visible="true"
       direction="-270.25,949.36218 , 97.125,0"
       dist_rdm="75;1"
       growth="0"
       do_bend="true"
       bender="-270.25,954.36218 , 5,0"
       bottom_edge_variation="46.8;1"
       top_edge_variation="46.8;1"
       bottom_tgt_variation="0;1"
       top_tgt_variation="0;1"
       scale_bf="1"
       scale_bb="1"
       scale_tf="1"
       scale_tb="1"
       top_smth_variation="0;1"
       bottom_smth_variation="0;1"
       fat_output="true"
       stroke_width_top="1"
       stroke_width_bottom="1"
       front_thickness="1"
       back_thickness="0.25" />
    <inkscape:path-effect
       effect="envelope"
       id="path-effect4280"
       is_visible="true"
       yy="true"
       xx="true"
       bendpath1="m -464.5,720.36218 388.5,0"
       bendpath2="m -76,720.36218 0,468.00002"
       bendpath3="m -464.5,1188.3622 388.5,0"
       bendpath4="m -464.5,720.36218 0,468.00002" />
    <linearGradient
       id="linearGradient3970">
      <stop
         style="stop-color:#c85900;stop-opacity:1;"
         offset="0"
         id="stop3972" />
      <stop
         style="stop-color:#ffe4d1;stop-opacity:1;"
         offset="1"
         id="stop3974" />
    </linearGradient>
    <linearGradient
       id="linearGradient3962">
      <stop
         style="stop-color:#bfbfbf;stop-opacity:1;"
         offset="0"
         id="stop3964" />
      <stop
         style="stop-color:#000000;stop-opacity:1"
         offset="1"
         id="stop3966" />
    </linearGradient>
    <clipPath
       id="clipPath3088"
       clipPathUnits="userSpaceOnUse">
      <path
         id="path3090"
         d="m 0,0 595.276,0 0,841.89 L 0,841.89 0,0 z" />
    </clipPath>
    <radialGradient
       inkscape:collect="always"
       xlink:href="#linearGradient3962"
       id="radialGradient3133"
       gradientUnits="userSpaceOnUse"
       gradientTransform="matrix(0.87921769,-0.57507228,0.29556581,0.45188528,-280.81812,628.0653)"
       cx="134.83488"
       cy="995.72241"
       fx="134.83488"
       fy="995.72241"
       r="30.678493" />
    <linearGradient
       inkscape:collect="always"
       xlink:href="#linearGradient3970"
       id="linearGradient3135"
       gradientUnits="userSpaceOnUse"
       x1="193.8401"
       y1="947.99725"
       x2="183.47421"
       y2="937.49725" />
    <linearGradient
       inkscape:collect="always"
       xlink:href="#linearGradient3970"
       id="linearGradient3998"
       gradientUnits="userSpaceOnUse"
       x1="193.8401"
       y1="947.99725"
       x2="183.47421"
       y2="937.49725"
       gradientTransform="translate(-9,-35)" />
    <radialGradient
       inkscape:collect="always"
       xlink:href="#linearGradient3962"
       id="radialGradient4002"
       gradientUnits="userSpaceOnUse"
       gradientTransform="matrix(0.87921769,-0.57507228,0.29556581,0.45188528,-289.81812,593.0653)"
       cx="134.83488"
       cy="995.72241"
       fx="134.83488"
       fy="995.72241"
       r="30.678493" />
    <radialGradient
       inkscape:collect="always"
       xlink:href="#linearGradient3962"
       id="radialGradient3413"
       gradientUnits="userSpaceOnUse"
       gradientTransform="matrix(0.87921769,-0.57507228,0.29556581,0.45188528,-289.81812,593.0653)"
       cx="134.83488"
       cy="995.72241"
       fx="134.83488"
       fy="995.72241"
       r="30.678493" />
    <linearGradient
       inkscape:collect="always"
       xlink:href="#linearGradient3970"
       id="linearGradient3415"
       gradientUnits="userSpaceOnUse"
       gradientTransform="translate(-9,-35)"
       x1="193.8401"
       y1="947.99725"
       x2="183.47421"
       y2="937.49725" />
  </defs>
  <sodipodi:namedview
     id="base"
     pagecolor="#ffffff"
     bordercolor="#666666"
     borderopacity="1.0"
     inkscape:pageopacity="0.0"
     inkscape:pageshadow="2"
     inkscape:zoom="1.4142136"
     inkscape:cx="111.10058"
     inkscape:cy="138.47763"
     inkscape:document-units="px"
     inkscape:current-layer="layer1"
     showgrid="false"
     inkscape:window-width="1366"
     inkscape:window-height="715"
     inkscape:window-x="0"
     inkscape:window-y="26"
     inkscape:window-maximized="1"
     borderlayer="false">
    <inkscape:grid
       type="xygrid"
       id="grid3132"
       empspacing="5"
       visible="true"
       enabled="true"
       snapvisiblegridlinesonly="true" />
  </sodipodi:namedview>
  <metadata
     id="metadata3093">
    <rdf:RDF>
      <cc:Work
         rdf:about="">
        <dc:format>image/svg+xml</dc:format>
        <dc:type
           rdf:resource="http://purl.org/dc/dcmitype/StillImage" />
        <dc:title></dc:title>
      </cc:Work>
    </rdf:RDF>
  </metadata>
  <g
     inkscape:label="Livello 1"
     inkscape:groupmode="layer"
     id="layer1"
     transform="translate(0,-796.36218)">
    <g
       id="g3383"
       transform="translate(86,0)">
      <path
         sodipodi:nodetypes="cccc"
         inkscape:connector-curvature="0"
         id="path3130"
         d="m -66.70269,1022.8296 -14.16266,-7.0244 0,-206.64605 14.32013,-9.55877"
         style="fill:#ffffd7;fill-opacity:1;stroke:#e3d5af;stroke-width:6;stroke-linecap:butt;stroke-linejoin:round;stroke-miterlimit:4;stroke-opacity:1;stroke-dasharray:none" />
      <path
         sodipodi:nodetypes="ccccc"
         inkscape:connector-curvature="0"
         id="path5429"
         d="m -66.66493,1022.7824 175.57584,-35.19038 0,-164.89064 -175.29838,-22.9625 z"
         style="fill:#ffffd7;fill-opacity:1;stroke:#e3d5af;stroke-width:6;stroke-linecap:round;stroke-linejoin:round;stroke-miterlimit:4;stroke-opacity:1;stroke-dasharray:none" />
      <path
         transform="matrix(0.37837837,0,0,0.37837837,39.903347,796.89321)"
         d="m -294.15644,57.833324 c 0,3.61235 -2.92838,6.540738 -6.54073,6.540738 -3.61235,0 -6.54074,-2.928388 -6.54074,-6.540738 0,-3.612349 2.92839,-6.540737 6.54074,-6.540737 3.61235,0 6.54073,2.928388 6.54073,6.540737 z"
         sodipodi:ry="6.5407376"
         sodipodi:rx="6.5407376"
         sodipodi:cy="57.833324"
         sodipodi:cx="-300.69717"
         id="path3943"
         style="fill:#000000;fill-opacity:1;stroke:none"
         sodipodi:type="arc" />
      <path
         transform="matrix(0.37837837,0,0,0.37837837,40.118347,841.04575)"
         d="m -294.15644,57.833324 c 0,3.61235 -2.92838,6.540738 -6.54073,6.540738 -3.61235,0 -6.54074,-2.928388 -6.54074,-6.540738 0,-3.612349 2.92839,-6.540737 6.54074,-6.540737 3.61235,0 6.54073,2.928388 6.54073,6.540737 z"
         sodipodi:ry="6.5407376"
         sodipodi:rx="6.5407376"
         sodipodi:cy="57.833324"
         sodipodi:cx="-300.69717"
         id="path3943-9"
         style="fill:#000000;fill-opacity:1;stroke:none"
         sodipodi:type="arc" />
      <path
         transform="matrix(0.37837837,0,0,0.37837837,40.4719,891.04575)"
         d="m -294.15644,57.833324 c 0,3.61235 -2.92838,6.540738 -6.54073,6.540738 -3.61235,0 -6.54074,-2.928388 -6.54074,-6.540738 0,-3.612349 2.92839,-6.540737 6.54074,-6.540737 3.61235,0 6.54073,2.928388 6.54073,6.540737 z"
         sodipodi:ry="6.5407376"
         sodipodi:rx="6.5407376"
         sodipodi:cy="57.833324"
         sodipodi:cx="-300.69717"
         id="path3943-7"
         style="fill:#000000;fill-opacity:1;stroke:none"
         sodipodi:type="arc" />
      <path
         transform="matrix(0.37837837,0,0,0.37837837,40.118347,939.04575)"
         d="m -294.15644,57.833324 c 0,3.61235 -2.92838,6.540738 -6.54073,6.540738 -3.61235,0 -6.54074,-2.928388 -6.54074,-6.540738 0,-3.612349 2.92839,-6.540737 6.54074,-6.540737 3.61235,0 6.54073,2.928388 6.54073,6.540737 z"
         sodipodi:ry="6.5407376"
         sodipodi:rx="6.5407376"
         sodipodi:cy="57.833324"
         sodipodi:cx="-300.69717"
         id="path3943-0"
         style="fill:#000000;fill-opacity:1;stroke:none"
         sodipodi:type="arc" />
      <path
         transform="matrix(0.37837837,0,0,0.37837837,40.019936,980.9793)"
         d="m -294.15644,57.833324 c 0,3.61235 -2.92838,6.540738 -6.54073,6.540738 -3.61235,0 -6.54074,-2.928388 -6.54074,-6.540738 0,-3.612349 2.92839,-6.540737 6.54074,-6.540737 3.61235,0 6.54073,2.928388 6.54073,6.540737 z"
         sodipodi:ry="6.5407376"
         sodipodi:rx="6.5407376"
         sodipodi:cy="57.833324"
         sodipodi:cx="-300.69717"
         id="path3943-0-1"
         style="fill:#000000;fill-opacity:1;stroke:none"
         sodipodi:type="arc" />
      <g
         transform="matrix(0.82961869,0,0,0.82961869,168.25175,72.590284)"
         id="g3378">
        <path
           style="font-size:144px;font-style:normal;font-variant:normal;font-weight:normal;font-stretch:normal;text-align:start;line-height:125%;letter-spacing:0px;word-spacing:0px;writing-mode:lr-tb;text-anchor:start;fill:#000000;fill-opacity:1;stroke:none;font-family:BKM-cmr10;-inkscape-font-specification:BKM-cmr10"
           d="m -248.45302,992.19948 c 0,0 1.61862,-45.33774 1.61862,-45.33774 0.56853,-8.61235 2.14034,-15.47391 4.69469,-20.5574 1.66638,-3.23093 3.92996,-5.34538 6.77254,-6.35157 2.86577,-1.0318 5.60681,-1.16811 8.2271,-0.42567 2.87472,0.81484 5.34496,2.43277 7.42395,4.84418 2.11421,2.35006 3.1635,4.58292 3.16354,6.71607 -4e-5,2.50672 -0.74505,4.34523 -2.24292,5.52173 -1.45252,1.14503 -3.28211,1.45262 -5.49838,0.91275 -2.00861,-0.48904 -4.21065,-2.01239 -6.61174,-4.58774 -1.35864,-1.44619 -2.54691,-2.30126 -3.56198,-2.55934 -1.01982,-0.25901 -1.89337,-0.0623 -2.61889,0.59264 -0.66722,0.61652 -1.00156,1.90618 -1.00153,3.8676 -3e-5,2.35398 0.27357,6.47945 0.81977,12.36556 2.23132,23.29959 3.3386,41.94061 3.33864,56.09825 -4e-5,3.7199 -0.47818,20.0221 -1.43756,49.0008 -0.48131,16.4605 -3.20809,27.8151 -8.26424,34.1429 -3.39284,4.1611 -7.67416,6.5478 -12.89317,7.1226 -3.4566,0.3806 -6.32023,-0.3097 -8.5681,-2.0881 -2.26949,-1.7955 -3.41245,-4.2865 -3.41245,-7.4598 0,-2.6944 0.86638,-4.9167 2.5897,-6.6574 1.779,-1.7328 3.98404,-2.6849 6.60298,-2.8644 2.65586,-0.1821 4.92236,0.592 6.81047,2.3103 1.87268,1.7042 3.44294,2.4995 4.71683,2.3968 1.07719,-0.087 1.96048,-0.5573 2.6521,-1.4095 0.68947,-0.8496 1.03342,-2.2107 1.03345,-4.0851 -3e-5,-2.3857 -0.2814,-5.7779 -0.84519,-10.185 -2.33282,-17.9101 -3.50827,-41.7309 -3.50824,-71.32342"
           id="path3275"
           inkscape:connector-curvature="0" />
        <path
           style="font-size:144px;font-style:normal;font-variant:normal;font-weight:normal;font-stretch:normal;text-align:start;line-height:125%;letter-spacing:0px;word-spacing:0px;writing-mode:lr-tb;text-anchor:start;fill:#000000;fill-opacity:1;stroke:none;font-family:BKM-cmr10;-inkscape-font-specification:BKM-cmr10"
           d="m -178.92851,1046.6257 c 7.03464,-0.5123 13.55595,-4.444 17.95052,-10.2742 0,0 0,8.9669 0,8.9669 0,0 18.32589,-2.8222 18.32589,-2.8222 0,0 0,-4.7335 0,-4.7335 -6.10117,0.3358 -9.23234,0.508 -9.23234,-7.2655 0,0 0,-83.70494 0,-83.70494 0,0 -18.92916,-2.17743 -18.92916,-2.17743 0,0 0,5.11484 0,5.11484 6.87426,1.25218 10.21839,1.86134 10.21839,9.82366 0,0 0,29.57437 0,29.57437 -4.12451,-5.50609 -10.21839,-9.29358 -16.79401,-9.96725 -18.09664,-1.854 -33.65133,13.36951 -33.65133,33.09725 0,19.0809 14.02073,35.6854 32.11204,34.368 m -14.88342,-14.1098 c -3.05398,-6.1421 -3.36196,-13.1713 -3.36196,-19.8938 0,-14.22669 4.42,-31.01545 20.61911,-29.51881 6.94913,0.64203 12.61544,5.61337 15.57679,12.11408 0,0 0,34.15983 0,34.15983 -2.96135,7.2612 -9.43211,12.8326 -17.10938,13.3144 -6.68877,0.4199 -12.56719,-3.9795 -15.72456,-10.1757"
           id="path3277"
           inkscape:connector-curvature="0" />
        <path
           style="font-size:144px;font-style:normal;font-variant:normal;font-weight:normal;font-stretch:normal;text-align:start;line-height:125%;letter-spacing:0px;word-spacing:0px;writing-mode:lr-tb;text-anchor:start;fill:#000000;fill-opacity:1;stroke:none;font-family:BKM-cmr10;-inkscape-font-specification:BKM-cmr10"
           d="m -138.13985,1042.1868 c 3.00726,-0.2062 5.96256,-0.8024 9.08039,-1.0126 3.58315,-0.2415 6.98858,-0.089 10.32491,-0.318 0,0 0,-4.4095 0,-4.4095 -1.71022,0.094 -2.82645,-1.6237 -2.82645,-3.657 0,-1.2708 0.40678,-2.683 1.11623,-3.7213 0,0 7.1229,-11.6275 7.1229,-11.6275 0,0 8.57093,14.3778 8.57093,14.3778 0.0916,0.3577 0.18322,0.7153 0.18322,1.0768 0,2.0486 -2.02737,2.8832 -3.23781,2.9498 0,0 0,4.2616 0,4.2616 3.42082,-0.2346 6.85754,-0.8276 10.21919,-1.0542 2.68851,-0.1812 5.41439,-0.018 8.09146,-0.2014 0,0 0,-4.0136 0,-4.0136 -3.35391,0.1846 -6.00588,0.3305 -8.35418,-3.3133 0,0 -11.64799,-20.1912 -11.64799,-20.1912 0,0 7.29176,-11.91296 7.29176,-11.91296 2.85886,-4.5627 6.96323,-6.46649 11.29421,-6.09987 0,0 0,-4.03278 0,-4.03278 -2.3623,-0.23196 -4.676,-0.10806 -7.11338,-0.34457 -3.013,-0.29236 -6.08614,-0.95155 -9.12814,-1.25025 0,0 0,4.25273 0,4.25273 1.57448,0.13328 2.67641,1.91315 2.67641,3.84069 0,1.20471 -0.45819,2.50014 -1.10193,3.42553 0,0 -5.62873,9.12878 -5.62873,9.12878 0,0 -7.8282,-13.36554 -7.8282,-13.36554 -0.20065,-0.39305 -0.30106,-0.77909 -0.30106,-1.15775 0,-2.14575 2.19494,-2.71726 3.57641,-2.60032 0,0 0,-4.36929 0,-4.36929 -3.77742,-0.37092 -7.54142,-0.35725 -11.49858,-0.74123 -3.40666,-0.33056 -6.88351,-1.06378 -10.32069,-1.40129 0,0 0,4.66477 0,4.66477 4.42226,0.37435 7.7722,0.65793 10.53133,5.02603 0,0 11.97427,20.04932 11.97427,20.04932 0,0 -9.15648,14.7451 -9.15648,14.7451 -3.34487,5.284 -8.38204,8.02 -13.91,8.3242 0,0 0,4.6723 0,4.6723"
           id="path3279"
           inkscape:connector-curvature="0" />
      </g>
    </g>
    <g
       id="g3405"
       transform="translate(0,28)">
      <g
         id="g3396">
        <path
           style="fill:url(#radialGradient3413);fill-opacity:1;stroke:none"
           d="m 80.798242,974.364 c 0,0 14.869398,12.5716 24.846248,13.6773 14.23278,1.5774 30.07542,-2.4699 35.21161,-21.8052 3.94647,-14.85655 -21.67175,-18.32122 -28.41247,-10.748 -6.74072,7.5732 -2.28637,12.178 -8.99961,17.0366 -6.4811,4.6902 -22.645778,1.8393 -22.645778,1.8393 z"
           id="path5346"
           inkscape:connector-curvature="0"
           sodipodi:nodetypes="csszsc" />
        <path
           style="fill:#ac9d93;stroke:#483737;stroke-width:3;stroke-linecap:butt;stroke-linejoin:miter;stroke-miterlimit:4;stroke-opacity:1;stroke-dasharray:none"
           d="m 151.8541,960.73229 c 6.30345,-10.90047 -20.50274,-30.9999 -26.80609,-20.10046 -6.30332,10.89928 20.50272,30.99987 26.80609,20.10046 z"
           id="path5348"
           inkscape:connector-curvature="0"
           sodipodi:nodetypes="zzz" />
        <path
           style="fill:url(#linearGradient3415);fill-opacity:1;stroke:#803300;stroke-width:6;stroke-linecap:butt;stroke-linejoin:miter;stroke-miterlimit:4;stroke-opacity:1;stroke-dasharray:none"
           d="m 131.57601,943.94706 c 0,0 116.40837,-109.17277 119.80832,-107.34559 3.69045,1.98332 -105.4191,120.93141 -105.4191,120.93141 -8.67097,-1.48899 -15.56071,-9.91959 -14.38922,-13.58582 z"
           id="path5340"
           inkscape:connector-curvature="0"
           sodipodi:nodetypes="cscc" />
      </g>
      <path
         transform="matrix(1.7058824,0,0,1.7058824,-24.649134,649.81366)"
         d="m 88.388344,183.34477 c 0,1.65973 -1.345475,3.00521 -3.005203,3.00521 -1.659729,0 -3.005204,-1.34548 -3.005204,-3.00521 0,-1.65973 1.345475,-3.0052 3.005204,-3.0052 1.659728,0 3.005203,1.34547 3.005203,3.0052 z"
         sodipodi:ry="3.0052037"
         sodipodi:rx="3.0052037"
         sodipodi:cy="183.34477"
         sodipodi:cx="85.383141"
         id="path3912"
         style="fill:#ececec;fill-opacity:1;stroke:none"
         sodipodi:type="arc" />
      <path
         sodipodi:nodetypes="cc"
         inkscape:connector-curvature="0"
         id="path3978"
         d="m 129.73646,950.64675 c -3.66733,-5.24499 -3.85531,-10.79994 1.80591,-10.9242"
         style="fill:none;stroke:#f2f2f2;stroke-width:3;stroke-linecap:round;stroke-linejoin:miter;stroke-miterlimit:4;stroke-opacity:1;stroke-dasharray:none" />
    </g>
  </g>
</svg>
